<svg version="1.1" xmlns="http://www.w3.org/2000/svg" viewBox="-98 -235.5 1200 1200"><path id="JP01" fill="#ffffff" stroke="#000" d="M818.1-220.9c-4.6-3.2-2.9,6.3-5.6,8.5c-2.9,2-6,3.6-8,2.4c-2-1-3.2-6-4.3-3.9c-1,2,0.3,10.6-3.2,14.8c-3.6,4.3-0.3,13.8,4.9,21.4c5.3,7.7,10.6,33.7,5.6,45.6c-4.9,11.9-7.3,18.6-6.6,27.1s1,22.5-7.7,25c-8.9,2.4-12.3,7.7-11.2,17.2c1,9.5,8,21.1,3.6,27.4c-4.6,6.3-9.5,12.9-13.3,13.3c-3.9,0.3-7.7,1-9.9-3.6c-2-4.6-9.5,2.4-14.1-1c-4.6-3.6-15.8-12.9-17.5-13.3c-1.7-0.3-7.3,3.6-8,6.3c-0.7,2.9-1.4,8,1.4,10.2c2.9,2,9.2,11.6,8,13.8c-1,2-10.6,14.8-14.1,15.8c-3.6,1-12.9,7.3-15.8,9.5c-2.9,2-11.2,3.6-11.2,7c0,3.6,1.4,16.5-1.4,20.1c-2.9,3.6-1.7,9.9,1.4,12.6c3.2,2.9,10.6,7.7,13.3,12.3c2.9,4.6,3.9,15.5,0.3,21.8c-3.6,6.3-4.6,18.9-2.4,24.2c2.2,5.3,6,8.5,8.9,7.7c2.9-0.7,5.3-7.3,10.6-9.2c5.3-1.7,0.7-17.2,8.5-16.2c7.7,1,10.9-8.9,13.3-7.3c2.4,1.4,9.5,3.9,12.9,6.6c3.6,2.9,12.3-2.9,14.5-5.6c2-2.9-9.5-7-13.3-11.9c-3.9-4.9-8.5-14.1-12.3-15.1c-3.9-1-10.2,0.7-13.8-2c-3.6-2.9-12.6-6.6-13.8-9.5c-1-2.9,5.6-24.2,11.6-25c6-0.7,12.6-4.3,15.8-0.7c3.2,3.6,11.9,18.2,14.5,20.1c2.4,1.7,28.8-28.8,42.9-24.2c14.1,4.6,18.9,11.6,24.7,12.6c5.6,1,18.2,12.6,23.5,16.2s23.5,14.1,31,16.5c7.5,2.4,15.5,11.9,15.5,11.9s1.7-7.7,3.9-12.9c2-5.3,0.7-19.7,3.6-24.7c2.9-4.9,29.1-41.2,43.6-45.3s20.4-0.3,23.5,0.7c3.2,1,12.6-0.3,14.8-0.3c2,0,3.2-7.7,6.6-7c3.6,0.7,8,3.6,10.9,2.9c2.9-0.7,4.3-9.5,7.7-10.9c3.6-1.4,16.5-4.3,20.1-4.6c3.6-0.3,5.3-8,9.2-9.5c3.9-1.4,11.9-7,8.9-7.7c-3.2-0.7-11.2,3.2-13.3,5.3s-7.7,7.7-11.9,1.7c-4.3-6-6.6-21.8-10.6-26s-7.7-13.8-6.6-15.5c1-1.7,9.2-17.2,9.5-22.1c0.3-4.9,9.2-16.2,7-18.9c-2-2.9-12.3,9.9-15.8,12.9c-3.6,3.2-14.1,17.2-20.8,18.6c-6.6,1.4-26-5.6-28.4-9.5c-2.4-3.9-9.5-7-13.3-7.7c-3.9-0.7-42.2-12.6-65.7-41.2c-23.5-28.4-35.6-46.8-40.7-53.1C833.1-202.7,821.9-218.2,818.1-220.9z"/><path id="JP02" fill="#ffffff" stroke="#000" d="M792.4,202.9c1.5,0.2,5.3-1.9,9.5-4.4c-2.2-3.2-4.3-6-5.1-6.8c-2.4-2.6-6.1-2.2-7.3-4.8s-5.1-23.8-4.9-37.1c0.2-13.1,6.3-31.8,4.3-30.5c-2,1.4-6.6,7.3-11.1,5.4c-4.4-1.9-10-7.5-12.1-9.5c-2-1.9-9.5-6.1-10-4.8c-0.5,1.4-5.6,10.6-5.8,15.5c-0.2,4.9-3.6,9.7-2.9,12.4c0.7,2.9-0.3,4.1,1.4,4.1s7-3.4,11.4-4.3c4.4-0.9,7.3-0.2,9-2c1.5-1.9,1-6,3.2-4.8c2,1.2,5.3,5.1,5.3,8.5c0,3.4-3.2,13.1-4.8,17.9c-1.5,4.8-4.1,5.6-6.1,3.7s-8.5-8.3-11.1-8.5c-2.6-0.2-2,9.9-5.1,12.1s-7.1,0.9-7.8-3.4c-0.7-4.3-3.1-16.8-2.9-21.1c0.2-4.3-2.4-5.8-4.6-5.6c-2,0.2-3.6,4.3-6.1,3.4c-2.6-0.9-4.6-7.5-7.1-5.6c-1.4,1-1,7.5-1.5,15c-0.5,7.3-0.9,23.3-10,24.3c-9.2,1-7-0.3-11.1,4.6c-4.1,4.9-1.7,6-1,13.1c0.2,2.6,1,4.9,1.7,7.5c10.2-0.5,20.4-1.2,23.5-1.7c6.5-1.2,10.2,3.9,13.8,5.4c3.7,1.4,11.6-5.1,14-7.3c2.2-2.2,9.7,1.7,9.4,8.2c-0.2,3.2-1.5,6.3-3.1,9c6.6-0.5,12.1-1,12.6-1.4C771,208.5,788.2,202.6,792.4,202.9z"/><path id="JP03" fill="#f56d64" stroke="#000" d="M821,273.7c1.2-1.4,5.6-4.3,4.1-6c-1.5-1.7-2.4-4.6-2.9-7c-0.3-2.4-4.3,4.8-4.3,3.4s1.5-20.9,0.5-26.7c-1-5.8-6.6-8.7-6.6-11.2s2-2.9,1-4.9c-1-2-3.9-2.9-3.9-3.9c0-1,3.4-3.6,2.4-4.9c-0.5-0.9-5.4-8.2-9.5-14c-4.3,2.6-8,4.6-9.5,4.4c-4.3-0.3-21.4,5.6-23,6.8c-0.5,0.5-6.1,1-12.6,1.4c-1.5,2.7-3.2,5.1-4.1,7.1c-1.7,3.9-1.2,20.6-1.2,22.3c0,1.7-2,2-2.9,3.7c-0.9,1.7-1.7,10.2-0.5,15.3s-7.3,17.2-8.2,20.1c-0.9,2.9,7.3,15.8,7.3,18.7c0,1.2,0,7.5,0.2,14.3c0.9-0.2,2,0,3.2,0.5c5.6,2,13.1,7.3,17.2,7.7c4.1,0.3-0.5,8.9,6.3,9c6.8,0.3,10.6-2.6,11.9-3.7c1.4-1.2,1.4-14.5,5.1-13.8c1.5,0.2,5.1,1.5,8.7,3.1c-0.2-2-0.2-3.7,0.7-3.7c1.4-0.2,2,2.4,3.4,0.9c1.2-1.5,0.7-3.4,2-3.7c1.4-0.3,3.7,0.9,4.6-1.2c0.9-2-0.5-3.9,0.9-4.3c1.4-0.3,2.9,0.3,3.1-0.7c0.2-1-1.7-2-0.3-3.4c1.4-1.2,4.3-2.6,3.7-4.8c-0.5-2-2.6-3.7-1.5-5.1c1-1.4,3.2-3.1,3.1-4.1c-0.2-1-1.7-4.1,0.9-6c2.6-1.9,4.3-2,4.3-3.7C824.4,274.1,819.8,275.1,821,273.7z"/><path id="JP04" fill="#b7ddfd" stroke="#000" d="M786.1,326.1c-1.4,1.2-5.1,3.9-11.9,3.7c-6.8-0.3-2-8.9-6.3-9c-4.3-0.3-11.6-5.6-17.2-7.7c-5.6-2-7.1,2.2-9,4.3c-0.7,0.7-4.3,1.9-8.7,3.1c2.6,4.1,4.9,8.5,5.3,9.9c0.5,2.6-3.7,6.5-3.9,9.4c-0.3,2.9,1.4,9.4,1.2,15.3c-0.3,6-7.7,15.5-8.5,21.4c-0.9,6-9,7.1-8.9,8.9c0.2,0.7-0.2,2.4-0.5,4.4c2.9,0.5,6,1,7.3,1.2c3.1,0.3,0.9,3.7,9,4.8c8.2,1.2,5.6,8.5,12.4,8.2c5.4-0.2,2.9-7,10.7-7.7c-0.5-2-1-3.7-1.2-4.9c-1.4-6,0.9-21.8,10.6-28.3c9.7-6.5,15.7-5.6,18.4-3.6c2.9,2,3.7,4.1,4.6,4.9c0.9,0.9,2.9,1.7,3.2,0.9c0.3-0.9-1-6.5-3.2-8.9c-2-2.2,1-3.9,1.9-5.6c0.9-1.7,2.6,0,1.5-2.9c-1-2.9-4.4-1.7-3.9-3.2c0.5-1.4,3.2-2.4,3.2-4.1c0-1.5-5.1-2.4-4.6-3.6c0.5-1,4.8-2.6,5.4-4.3c0.7-1.5-1.5-4.4,0.2-6.5c1.7-2,2.9-5.1,3.7-6c0.9-0.9,2.2,1.5,2.9-1.5c0.2-1.2,0.2-2.6,0-3.7c-3.6-1.5-7.1-2.7-8.7-3.1C787.7,311.7,787.7,324.9,786.1,326.1z"/><path id="JP05" fill="#ffffff" stroke="#000" d="M740,279.7c0.9-2.9,9.4-15,8.2-20.1s-0.3-13.6,0.5-15.3c0.9-1.7,2.9-2,2.9-3.7c0-1.7-0.5-18.4,1.2-22.3c1.7-3.9,6.8-9.7,7.1-16.2c0.3-6.5-7.1-10.6-9.4-8.2c-2.2,2.2-10.2,8.9-14,7.3c-3.7-1.4-7.3-6.5-14-5.4c-3.1,0.5-13.3,1.2-23.5,1.7c1.2,4.8,2,10.7-1.2,20.4c-4.9,15.1-6,15.1-9,16.3s-7.8-0.9-6.6,5.4s8,3.1,11.4,1.5c3.4-1.4,8.3,1.5,9.2,14.6c0.9,12.9-4.8,31.7-7.3,33.4c-1.2,0.9-2.2,7.1-3.6,14.3c15.5,3.7,33.2,8.3,35.2,9.7c1.5,1.2,3.7,3.9,5.8,7.1c4.4-1.2,8-2.4,8.7-3.1c1.5-1.5,2.7-4.4,5.8-4.8c0-6.8-0.2-13.1-0.2-14.3C747.5,295.5,739.2,282.6,740,279.7z"/><path id="JP06" fill="#ffffff" stroke="#000" d="M734.4,339.7c0.3-2.9,4.6-6.8,3.9-9.4c-0.5-2.6-7.3-14.5-11.1-17c-2-1.4-19.7-6-35.2-9.7c-1.5,8.3-3.6,18-6.8,22.6c-4.3,6-8.7,12.8-12.3,20.3c3.4,1.5,6.3,2.9,7.5,3.7c3.7,2.6,2.9,6.3,3.4,7.3c0.5,1.2,8.5,3.1,7.3,9c-1.2,6-9,6-10.2,9.9s-4.8,16.2-3.1,19.7c0.7,1.5,3.6,4.4,6.6,7.1c1.9-1.2,3.7-1.9,5.3-1.7c4.8,0.3,15,4.6,17.5,4.3s8.9,1.2,8.9-5.1s2.2-14.1,2-15.8c-0.3-1.7,8-2.9,8.9-8.9c0.9-6,8.2-15.5,8.5-21.4C735.8,348.9,734.1,342.5,734.4,339.7z"/><path id="JP07" fill="#f56d64" stroke="#000" d="M746.6,403.9c-6.8,0.3-4.3-7.1-12.4-8.2c-8.2-1.2-6-4.6-9-4.8c-1.4-0.2-4.4-0.7-7.3-1.2c-0.5,3.2-1.4,7.7-1.4,11.4c0,6.3-6.3,4.8-8.9,5.1s-12.8-3.9-17.5-4.3c-4.8-0.3-13.1,7.7-15.3,11.4c-2.2,3.7-0.3,9.7-0.3,11.4c0,1.7-18.9,5.6-20.4,6.5s-2,7.7-2.9,11.4c-0.9,3.7,2.6,8.5,2.9,11.9c0.2,1.5-0.2,7.1-0.7,13.1c3.2,1.4,6.1,2.6,7,2.6c1.4,0,15-5.1,20.4-9.9s7.3-8.2,16.7-6.5c9.4,1.7,17.5,7.1,17.5,10.2s3.1,8,6,9.9c2.9,2,8,6.5,10.6,5.1c2.6-1.4-3.1-9.4,3.7-7.7c2.7,0.7,7.3,1.9,11.6,3.1c0.5-1.5,1.2-2.7,2-3.1c3.2-1,10-4.3,10-8.7c0-4.4,4.6-23.7,4.4-35.1c-0.2-9.2-3.6-23-5.8-31.1C749.4,396.9,752.1,403.7,746.6,403.9z"/><path id="JP08" fill="#ffffff" stroke="#000" d="M698.7,545.5c2.2,2,13.6,5.6,18.7,3.9c5.1-1.7,13.6-5.6,15.8-3.7c0.9,0.9,7,4.4,13.8,8.3c-2.7-3.9-6.3-9.5-9.2-16.5c-5.8-13.8-4.9-18.2-2.9-21.6c2-3.4,2.2-5.6,1.9-8.5c-0.3-2.9,4.1-13.4,6.1-18.2c1.5-3.4,2.2-10.9,3.6-15.1c-4.4-1.2-8.9-2.4-11.6-3.1c-6.8-1.7-1.2,6.3-3.7,7.7c-2.6,1.4-7.7-3.1-10.6-5.1c-1.9-1.2-3.7-3.6-4.8-6c0,8.7-0.2,17-0.9,18.4c-1.4,3.1,0.5,11.4-0.5,17.2c-1.2,6-17,6.5-20.9,11.4c-3.9,4.8-6.5,7.3-9.7,8.5c-1.2,0.5-2.9,1-4.8,1.7c0.9,1.7,1.9,3.2,2.7,4.8c0.7,1,1.4,2.2,2.4,3.6c2,0.5,3.9,1.2,4.4,1.9C690.5,537,696.4,543.5,698.7,545.5z"/><path id="JP09" fill="#b7ddfd" stroke="#000" d="M693.5,514.7c3.9-4.8,19.7-5.4,20.9-11.4c1.2-6-0.9-14.1,0.5-17.2c0.7-1.4,0.9-9.9,0.9-18.4c-0.7-1.4-1-2.7-1-3.9c0-3.1-8.2-8.5-17.5-10.2c-9.4-1.7-11.4,1.7-16.7,6.5c-4.3,3.9-14,8-18.2,9.4c-1.4,8.7-3.1,19.6-3.2,21.8c-0.3,3.9,7.3-0.3,6.8,4.6c-0.5,4.8-2,9.7-3.1,13.8c-1.2,4.3,4.8,8,9,8c3.1,0,5.3,3.6,7.5,7.3c1.7-0.7,3.6-1.2,4.8-1.7C687.1,522,689.6,519.5,693.5,514.7z"/><path id="JP10" fill="#ffffff" stroke="#000" d="M643.8,526.3c1.7-4.3,3.7-7.1,6.3-7.1c2.6,0,15.5,5.1,18,5.4c1.4,0.2,6.6,0.3,11.2,0.3c-2.2-3.9-4.4-7.5-7.5-7.5c-4.3,0-10.2-3.7-9-8c1.2-4.3,2.6-9,3.1-14c0.5-4.8-7.1-0.5-6.8-4.6c0.2-2.2,1.9-13.1,3.2-21.8c-1,0.3-1.9,0.5-2,0.5c-1.4,0-10.6-3.9-15.8-6.8c-5.4-2.9-5.4,0.9-7.3,7.1c-2,6.3-8,9-10.7,11.6c-2.9,2.6-8.9,2.9-15.3,5.6c-6.5,2.9-8,11.9-9,16.3c-1.2,4.6,15.8,2,16.3,7.7s-3.7,14.6-2.9,18.7c0.5,2.2,2.9,4.8,4.8,7.7c4.3-1.4,8.9-2.9,11.6-4.3C638.4,530.5,642.1,530.5,643.8,526.3z"/><path id="JP11" fill="#faff79" stroke="#000" d="M640.4,548.1c4.3,0.3,13.8,0.5,18.4,4.6c4.6,3.9,12.4,3.1,15.5,3.1c2,0,12.1,0,18.6,0c0.2-2.7,0.2-4.9-0.2-6.5c-0.9-5.6-7.7-14.5-10.7-19.6c-0.9-1.5-1.7-3.1-2.7-4.8c-4.6-0.2-9.9-0.2-11.2-0.3c-2.6-0.3-15.5-5.4-18-5.4s-4.6,2.9-6.3,7.1c-1.7,4.3-5.4,4.3-11.9,7.3c-2.9,1.4-7.5,2.9-11.6,4.3c1.5,2.2,2.9,4.4,2.9,6.8c0,0.5-0.2,1-0.5,1.4l14.8,4.9C637,549.1,637.7,547.9,640.4,548.1z"/><path id="JP12" fill="#e87afd" stroke="#000" d="M733.2,545.9c-2.2-2-10.7,2-15.8,3.7c-5.1,1.7-16.3-2-18.7-3.9c-2.2-2-8.2-8.5-9.9-10.6c-0.5-0.7-2.4-1.4-4.4-1.9c3.4,5.1,7.8,11.4,8.5,16c0.5,3.6-0.2,12.3-0.9,18.2c1,0,2-0.2,2.9-0.9c1.5-1.2,0.9-2.2,2.6-2c1.7,0.2,6.6,3.2,7.7,5.1s-0.9,6-4.9,8.5c-4.1,2.4-6.1,1.4-6.3,4.4c-0.2,3.1-1,3.1-2.9,4.1c-1.7,1-4.6,2.6-3.4,4.3c1.2,1.5,4.4,2.9,3.6,4.8c-0.9,1.9-2.9,2.9-2.6,6.5c0.3,3.6,0.9,5.6,0.9,7.8c0,2.2,2.7,3.1,1.5,3.9c-1.2,0.9-5.1,1.2-4.8,2.4c0.3,1.2,2.2,4.3,5.4,4.3s4.1-4.8,6.5-7.1c2.4-2.4,5.3-7.1,9-8.3c3.7-1,12.3-2.4,14.1-5.3c1.7-2.7,4.1-7.7,2.6-10.9c-1.4-3.2,0.2-12.9,6.5-18.6c6.3-5.6,13.8-8.5,16.2-8.7c2.4-0.2,4.6,1.2,4.8-0.3c0.2-0.9-1.9-3.2-4.4-7C740.2,550.1,734.2,546.5,733.2,545.9z"/><path id="JP13" fill="#e87afd" stroke="#000" d="M674.3,555.7c-3.1,0-11.1,0.9-15.5-3.1c-4.6-3.9-14.1-4.3-18.4-4.6c-4.3-0.3-3.4,3.1-1.7,6.5c1.7,3.4,3.4,6,8,7.7s12.4,5.4,15.8,8.2s7.1,3.1,7.1,1.7s-4.3-6,1.7-4.8c3.7,0.7,10.9,3.7,15.5,5.8c0-0.5,0-0.9-0.2-1.4c-1-2.2,0.2-4.1,2.2-4.4c1-0.2,2.2-0.2,3.2-0.2c0.3-3.4,0.7-7.8,0.9-11.6C686.4,555.7,676.5,555.7,674.3,555.7z"/><path id="JP14" fill="#bbf59d" stroke="#000" d="M637,579.2c-0.9,0.9-1.7,3.4-2.6,6.3c1.2-0.2,2.4-0.5,3.4-0.7c5.6-0.9,0,7.3,1.4,14c0.5,2.6,3.6,3.6,7,3.9c1-3.4,1.4-7.1,3.2-8c2.6-1.2,11.4-4.6,17.9-3.7c6.5,0.9,8.9,4.6,8.7,7c-0.2,2.4,0.5,6,2,5.6c1.5-0.3,1.9-4.6,3.2-5.3c1.2-0.7,3.7-4.3,1.7-5.3c-1.9-1-6-3.9-5.1-7c0.9-3.2,3.7-4.9,5.3-6.8c1.4-1.5,3.4-3.9,3.6-6c-4.6-2-11.6-5.1-15.5-5.8c-6-1.2-1.7,3.4-1.7,4.8c0,1.4-3.7,1.2-7.1-1.7c-3.2-2.6-10.2-6-14.8-7.8c-0.3,3.1-0.7,6.6-1,8.2C646.1,573.3,638.9,577.2,637,579.2z"/><path id="JP15" fill="#ffffff" stroke="#000" d="M678.1,396.6c-1.7-3.7,2-15.8,3.1-19.7c1.2-3.9,9-3.9,10.2-9.9c1.2-6-6.8-8-7.3-9c-0.5-1.2,0.3-4.8-3.4-7.3c-1.2-0.9-3.9-2.2-7.5-3.7c-1.5,3.2-3.1,6.6-4.3,10c-4.1,11.6-7.3,26-16,31.7s-21.4,8.9-25.5,18.2c-4.1,9.5-9.9,23.7-17.4,30.3c-7.5,6.5-15.7,14.1-20.6,14.5c-4.9,0.3-10.6,4.8-15,7.7c-2.6,1.7-8.7,3.6-14.8,5.4c1.2,4.1,2.6,8.5,3.9,12.9c0.5,1.9,0.9,3.6,1.2,4.9c4.3-4.6,5.4-11.1,10-11.2c7.3-0.3,3.1,6,8.5,6s12.3-4.3,13.3-6c1-1.7,8.5-7.1,12.3-8.2c3.7-1.2,6.3,4.3,7.3,7.1c0.7,1.7,3.7,8.3,6.3,13.8c1.4-0.5,2.7-1,3.6-1.9c2.9-2.6,8.9-5.4,10.7-11.6c1.9-6.1,2-9.9,7.3-7.1c2.6,1.4,6,2.9,9,4.3c0.5-6,0.9-11.6,0.7-13.1c-0.3-3.4-3.7-8.2-2.9-11.9c0.9-3.7,1.4-10.6,2.9-11.4c1.4-0.9,20.4-4.8,20.4-6.5c0-1.7-2-7.7,0.3-11.4c1.5-2.6,6-7,10-9.5C681.6,401,678.7,398.1,678.1,396.6z"/><path id="JP16" fill="#ffffff" stroke="#000" d="M517.6,517.3c1.4,2.9,5.6-7.3,8.9-9.7c3.1-2.2,13.3-1.4,17-1.2c1.9,0.2,8,2.2,13.8,4.3c0-4.4,1.7-9.5,4.3-12.6c3.4-3.9,6-8.2,2.2-20.9c-1.2-4.4-2.6-8.9-3.9-12.9c-4.1,1.2-8.2,2.6-11.2,3.7c-7.5,3.2-4.8,6.6-6.3,9.7c-1.5,3.1-3.9,5.3-8.5,4.4c-4.6-0.9-14.6-4.9-14.3-7.1c0.3-2.2,3.2-7.8,3.2-9.5c0-0.2,0-0.3,0-0.7c-9.7,2.2-11.1,9.2-13.3,15.1c-2.7,7.1-2.9,24.3-1.9,33.5c2.2-0.3,3.9-0.5,4.6-0.7C514.2,512.3,516,514.4,517.6,517.3z"/><path id="JP17" fill="#ffffff" stroke="#000" d="M540.2,429.3c-0.2-3.4-0.3-7.1-7-5.1s-26.7,10.2-29.1,12.4s-5.1,12.1-3.9,15c1.2,2.7,5.8,13.3,4.3,20.6c-1.5,7.3-9,25.5-23.8,38c-2.4,1.9-4.4,3.9-6.3,5.8c6.6,8.7,14.6,11.2,18.2,11.4c2.7,0.2,8,2.6,12.1,4.6c1.9-4.8,4.1-11.4,3.2-17.4c-1.2-8.9-1.2-27.2,1.7-34.6c2.4-6,3.7-13.1,13.3-15.1c-0.3-2.4-2.4-9.2-1.4-13.3c1.2-4.6,3.1-9.9,6.1-10.2c3.1-0.3,9.2-0.3,7.1-5.6C532.7,430.6,540.4,432.7,540.2,429.3z"/><path id="JP18" fill="#ffffff" stroke="#000" d="M474,515.9c-10.6,10.6-15.7,20.3-16.3,24.3c-0.7,4.8,3.2,7.7,5.6,12.9s1.4,7.1-0.7,8.3c-2,1-0.3-5.1-3.1-3.1c-2.6,2,1,5.4-3.4,7.5c-4.4,2-6.8-2-8.3,1.4c-1.4,3.6-5.4,9.7-10.9,8.5s-7.3-4.3-10.4-5.1c-0.2,0-0.3,0-0.5,0c0.7,4.1,1.5,8,2.6,10.6c2.2,5.1,8.9,5.6,13.6,7c2.4-1.5,4.6-2.9,5.8-3.9c3.1-2.6,3.7-8,8.2-9c4.6-1.2,8.5,0.3,10.2-4.6c1.7-4.8,0.3-9.4,3.1-9c1.2,0.2,4.6,0.9,8.2,1.9c1-4.1,3.4-8,3.9-7.8c0.9,0.3,25.2,2,25.2-4.6c0-6.5-6.3-9.9-4.8-13.8c0.5-1.2,1.2-3.1,2.2-5.3c-4.1-2-9.4-4.4-12.1-4.6C488.6,527.1,480.6,524.6,474,515.9z"/><path id="JP19" fill="#faff79" stroke="#000" d="M601.3,544.3c-5.6,0.5-9.7,7.7-9.9,13.6c-0.3,6,2.2,31.7,5.4,32.3c3.1,0.5,3.9,8.9,9.7,9.7c5.6,0.9,4.3-13.6,4.3-15.8c0-2.2,3.7-1.7,7.7,1.4c3.2,2.6,10.6,1.2,16.2,0c0.9-2.7,1.7-5.4,2.6-6.3c2-2,9-6,9.7-8.5c0.3-1.4,0.7-5.1,1-8.2c-0.3-0.2-0.7-0.3-1-0.3c-4.6-1.7-6.3-4.3-8-7.7c-0.7-1.2-1.2-2.6-1.4-3.6l-14.8-4.9C619.7,548.8,606.4,543.8,601.3,544.3z"/><path id="JP20" fill="#b7ddfd" stroke="#000" d="M609,462.8c-3.7,1.2-11.1,6.5-12.3,8.2s-8,6-13.3,6c-5.4,0-1.2-6.3-8.5-6c-4.8,0.2-5.8,6.6-10,11.2c1.7,9-0.5,12.6-3.4,16c-3.4,3.9-5.4,12.1-3.7,16.7c1.7,4.6-5.6,12.3-4.8,19.6c0.9,7.3-2.6,12.8-8.9,13.1c-6.3,0.3-3.7,6.8-0.9,8s10.2,16.3,11.4,20.1c1.2,3.7-2,16.2-2.6,19.6c-0.5,2.7,9.4,2.9,13.8,4.3c8.3-4.6,17.4-9.5,18.6-10.2c2.2-1.4,3.4-7.3,3.1-11.1c-0.2-1.9,2-7.1,4.3-11.7c-0.3-3.6-0.5-6.6-0.3-8.3c0.3-6,4.3-13.1,9.9-13.6c5.6-0.5,21.8,5.6,21.8,0.3c0-5.4-6.8-10.6-7.7-14.5c-0.9-3.9,3.4-13.1,2.9-18.7c-0.5-5.6-17.5-3.1-16.3-7.7c1.2-4.6,2.6-13.6,9-16.3c4.4-1.9,8.7-2.7,11.7-3.7c-2.6-5.4-5.8-12.1-6.3-13.8C615.3,467.1,612.7,461.8,609,462.8z"/><path id="JP21" fill="#b7ddfd" stroke="#000" d="M510.9,584.8c5.4-2,9,1.2,13.1,4.6c3.9,3.4,16.2,6.5,18.9,6.5c1.4,0,5.4-1.2,9.4-2.6c1-4.8,3.2-14.6,2.2-17.7c-1.2-3.7-8.5-18.9-11.4-20.1c-2.9-1.2-5.4-7.7,0.9-8c6.3-0.3,9.7-5.6,8.9-13.1c-0.9-7.3,6.5-15,4.8-19.6c-0.5-1.2-0.7-2.6-0.7-4.3c-5.8-2-11.9-4.1-13.8-4.3c-3.7-0.3-13.8-1.2-17,1.2c-3.1,2.2-7.3,12.4-8.9,9.7c-1.4-2.9-3.4-4.8-5.4-4.3c-0.7,0.2-2.6,0.3-4.6,0.7c0,0.3,0,0.7,0.2,1c1.2,8.9-3.9,18.7-5.4,22.6c-1.5,3.9,4.8,7.3,4.8,13.8c0,6.5-24.3,4.8-25.2,4.6c-0.9-0.3-5.6,8.5-4.3,14c1.4,5.4,5.4,15.8,4.8,23.1c0,0.9,0,1.7,0,2.6c3.7-0.3,7.3-0.5,8-0.3c1.2,0.3,4.8,3.4,8.2,6.6c1.4-2.2,2.4-4.4,2.4-6.3C500.9,590.3,505.6,586.9,510.9,584.8z"/><path id="JP22" fill="#b7ddfd" stroke="#000" d="M587.5,578c0.3,3.7-0.9,9.7-3.1,11.1c-1.2,0.7-10,5.6-18.6,10.2c1.2,0.3,1.9,0.9,2,1.4c0.9,2.9-5.6,9.7-7.7,14.5c-2,4.8-9.4,6.5-11.4,11.9c-0.7,1.9-0.7,5.8-0.2,10c1.2-0.2,2.4-0.2,3.2-0.2c3.9,0.2,14.1,1.9,16.3,1.5c2.2-0.3,12.9,0.3,17.4,2c4.4,1.7,8,4.1,6.6,1.7c-1.4-2.2-3.1-7.5,1.2-9.9c4.3-2.2,5.8-6.6,5.8-8.9c0-2,2.4-4.8,5.1-6.3c2.6-1.5,6.1-6.1,9.2-10.6c3.1-4.4,9.2-4.4,13.8-2c4.6,2.2,6.3,6.1,4.4,6.6s-6.6,0.2-6.5,2.4c0.2,2.2,0.7,7.1-0.2,13.1c-0.9,6-1.2,7.8-0.2,9.4c1,1.4,3.2,5.4,5.4,5.1c2.2-0.3,5.4-3.4,7.3-6.3c1.9-3.1,5.8-12.1,7.8-12.8s3.4-4.1,2.2-6.1c-1-2-5.6-6.3-3.2-10c0.7-1,1.2-2.4,1.5-3.6c-3.4-0.3-6.3-1.4-7-3.9c-1.4-6.5,4.3-14.8-1.4-14c-5.6,0.9-15.5,3.7-19.6,0.5c-3.9-3.1-7.7-3.7-7.7-1.4c0,2.2,1.4,16.7-4.3,15.8c-5.6-0.9-6.5-9-9.7-9.7c-2.2-0.3-4.3-14.3-5.1-24C589.6,570.9,587.3,576.2,587.5,578z"/><path id="JP23" fill="#f56d64" stroke="#000" d="M567.9,600.7c-0.9-2.9-16.3-2.2-15.8-5.6c0-0.5,0.2-1,0.3-1.7c-4.1,1.4-8.2,2.6-9.4,2.6c-2.9,0-15-3.1-18.9-6.5c-3.9-3.4-7.7-6.5-13.1-4.6c-5.4,2-10.2,5.4-10.2,10.6c0,1.9-1,4.1-2.4,6.3c1.2,1.2,2.4,2.2,3.4,3.4c1.5,1.5,2.4,3.9,3.1,6.1c3.9-0.2,6.6-3.6,5.8-0.9c-0.9,2.9-2,7.8-0.9,10.7c1.2,2.9-2,5.6,0.5,8.7c2.6,3.1,6.8,6.6,7.3,5.3s-4.8-7.8-1.7-9.4c3.1-1.4,2,2.6,7,3.2c4.9,0.5,5.8-0.9,10-0.9s6,3.2,3.9,4.8c-2,1.5-7,3.9-9.9,4.9c-2.9,1-8.7,5.1-6,5.3c2.6,0.2,8.9,0,13.4-2.2c3.7-1.7,9.7-3.1,14-3.4c-0.3-4.3-0.5-8.2,0.2-10c2-5.4,9.4-7.1,11.4-11.9C562.2,610.7,568.8,603.6,567.9,600.7z"/><path id="JP24" fill="#ffffff" stroke="#000" d="M490.3,595c-0.7-0.2-4.3,0-8,0.3c0.2,7.5,2.6,17.7,0.7,21.8c-2.2,4.6-15,3.4-17.5,6.5c-1,1.4-3.4,1.9-5.6,2.2c2.2,3.9,2.7,13.4,2.6,16c-0.3,2.9,9.4,6.3,9,9c-0.3,2.9-7.7,3.9-6.8,6.3c0.9,2.2,0.3,15.3,0.5,19.7c0.3,4.6-2.6,6.5-4.8,7.7c-2.2,1.2-9.7,6.3-10.7,11.4c-0.7,2.9,4.3,7.5,9.7,11.2c0.7-2,1.2-4.3,1.5-6.3c1-6.3,13.3-10.6,14.1-14.6c0.9-4.1,0.2-11.2,2.6-14c2.4-2.7,14-4.6,18.2-6.5c4.4-1.9,6-0.9,10.7,0.5c4.8,1.4,6.6-1.4,6-4.9c-0.7-3.6,2.6-6.8,0.9-8.3c-1.7-1.4-17.7-10-20.4-12.4c-2.6-2.4-3.6-6.3-1.9-9.5c1.5-3.2,6.8-9.7,7.1-13.3c0.3-3.7,2.4-6.6,6.5-6.6c0.2,0,0.2,0,0.3,0c-0.5-2.2-1.4-4.6-3.1-6.1C498,601,492,595.6,490.3,595z"/><path id="JP25" fill="#b7ddfd" stroke="#000" d="M466.5,570.7c-1.7,4.8-5.6,3.4-10.2,4.6c-4.6,1.2-5.1,6.5-8.2,9c-1.2,1-3.4,2.4-5.8,3.9c1.7,0.5,3.2,1.2,4.1,2.4c2.9,3.9,2,15.8,2,20.1s7.1,11.9,10.2,14c0.3,0.3,0.9,0.7,1.2,1.4c2.4-0.3,4.6-0.9,5.6-2.2c2.6-3.1,15.3-2,17.5-6.5c2.2-4.6-1.2-17-0.5-24.3c0.5-7.3-3.4-17.9-4.8-23.1c-0.5-1.9-0.2-3.9,0.3-6.1c-3.7-0.9-7.1-1.7-8.2-1.9C466.8,561.3,468.2,565.9,466.5,570.7z"/><path id="JP26" fill="#f56d64" stroke="#000" d="M458.7,624.5c-3.1-2-10.2-9.7-10.2-14s0.9-16.2-2-20.1c-2.9-3.9-14.5-2.2-17.5-9.4c-1-2.4-1.9-6.3-2.6-10.6c-3.1-0.2-7.5,4.9-10.2,3.4c-3.1-1.5,2.4-8.2,1.2-11.6c-1.2-3.6-1.2-9.2-4.9-7c-3.7,2-13.8,8.7-18.7,8.9c-1,0-2.4,0-3.7,0c0,2.4,0,4.4,0,5.3c0,3.4,11.4,3.4,11.9,8.2c0.5,4.8-6.8,2.9-8.2,6c-1.4,3.1,5.1,7.3,8,8.9c2.9,1.4,16.7,7.7,19.7,12.4c1.7,2.6,0.9,5.1,0,7.1c4.3,2.2,8,4.3,8.7,4.9c1.4,1.7,3.7-2.6,6.5,0.9c2.2,2.6,4.8,6.8,4.9,11.7l20.3,2.6C461.1,628.7,460.2,625.5,458.7,624.5z"/><path id="JP27" fill="#e87afd" stroke="#000" d="M440.8,634.7c2.2-7.1-1.4-13.3-4.3-16.7c-2.9-3.4-5.1,0.9-6.5-0.9c-0.7-0.9-4.4-2.9-8.7-4.9c-0.7,1.9-1.2,3.2,0,3.9c2.6,1.4,3.4,6.8,3.4,12.8c0,2.2-1.5,4.8-3.2,7.3c2.6,0.9,3.9,1.7,2.9,5.1c-1.7,4.9-4.4,10.4-9.2,15s-5.3,4.9-8.5,5.6c-1.7,0.3-2.9,1.9-3.4,3.2c7.3-1.4,25-4.6,35.4-6.3C437.7,652.7,438.8,641.3,440.8,634.7z"/><path id="JP28" fill="#e87afd" stroke="#000" d="M421.2,616c-2.6-1.4,3.1-6.3,0-11.1c-3.1-4.8-17-11.1-19.7-12.4c-2.9-1.4-9.4-5.6-8-8.9c1.4-3.1,8.9-1.2,8.2-6c-0.5-4.8-11.9-4.8-11.9-8.2c0-0.9,0-2.9,0-5.3c-5.6,0-13.8,0-18.9,0c-2.4,0-5.8,1.4-9.5,3.1c1.2,2.6,2.2,4.9,2.4,6.1c0.5,4.3,6.3,12.3,5.4,15.8c-0.7,2.7-3.2,4.4-6.1,5.3c-1.5,6.5-5.1,14.1-7.5,20.8c-1.7,5.1-0.3,11.6,1.5,16.8c4.6-0.7,10.9-2.4,14.5-2.9c4.9-0.7,13.1,1.2,18.6,4.6c5.4,3.4,8,6,12.9,5.6c4.9-0.3,9-6.8,13.8-4.9c1.5,0.7,3.1,1,4.4,1.5c1.9-2.6,3.2-5.1,3.2-7.3C424.6,622.8,423.8,617.3,421.2,616z"/><path id="JP29" fill="#f56d64" stroke="#000" d="M471.4,650.9c0.3-2.9-9.4-6.3-9-9c0.2-1.5,0-5.6-0.7-9.4l-20.3-2.6c0,1.5-0.2,3.2-0.7,4.9c-2.2,7.1-3.1,19.7-2,25.2c1.2,5.4,3.7,9-1.7,12.8c-5.4,3.7-6.5,7.1-4.3,11.4s1.4,11.6,3.9,10.7c1.4-0.5,7.3-0.3,13.1-0.2c1.9-4.6,8.2-9,10.4-10c2.2-1.2,5.1-3.1,4.8-7.7c-0.3-4.6,0.3-17.5-0.5-19.7C463.8,654.8,471.1,653.6,471.4,650.9z"/><path id="JP30" fill="#f56d64" stroke="#000" d="M449.7,695.8c0.2-0.5,0.2-0.9,0.5-1.4c-5.8-0.2-11.9-0.2-13.1,0.2c-2.6,0.9-1.7-6.5-3.9-10.7s-1.2-7.7,4.3-11.4c5.4-3.7,2.9-7.3,1.7-12.8c0-0.3-0.2-0.9-0.2-1.2c-10.4,1.7-28.1,4.9-35.4,6.3c-0.5,1.4-0.5,2.9,0.2,3.6c1.4,1.4,7.8,2.2,4.8,4.8c-3.2,2.4-5.1,6.8-3.7,8.3c1.4,1.4,3.1,2,1.4,3.7c-1.5,1.5-4.1,4.6-2.2,7c1.7,2.4,6.3,6.8,11.6,9.2c5.3,2.4,5.8,2.9,5.3,7.5c-0.5,4.8,1.9,9.4,4.6,10.4c2.6,1,16.3,5.3,18.7,6s8.9-4.8,11.1-7.8c1.5-2,3.2-6,4.4-10.2C453.9,703.3,449,698.7,449.7,695.8z"/><path id="JP31" fill="#ffffff" stroke="#000" d="M363.7,573.6c-0.2-1.2-1.2-3.6-2.4-6.1c-5.8,2.7-12.6,6.3-18.2,7c-9.4,1-23.3,0.5-28.6-0.5c-5.3-1-7.7,5.6-12.9,4.4c-0.9-0.2-1.7-0.5-2.4-0.9c-1,4.6-2,9.7-2.4,11.2c-0.5,2.9-7.7,7.3-8.9,9c-0.5,0.7-0.9,4.6-1,8.5c3.4,0.3,6.5,0.7,8.3,0.5c5.1-0.5,18.7-17.9,20.6-19.6c2-1.7,9,4.3,11.1,4.6s6-3.1,9-4.3s9,5.4,9.7,8c0.5,2.6,10.6,0.3,14.1,0c3.7-0.3,8.5-2.2,9.4-6C370,585.7,364.4,577.9,363.7,573.6z"/><path id="JP32" fill="#ffffff" stroke="#000" d="M296.6,588.6c0.3-1.4,1.4-6.5,2.4-11.2c-3.7-1.5-5.8-4.1-4.9-5.1c1-1.2,4.3-2.4,2.2-2.6c-1.9-0.2-6,1.9-9,0.3c-3.1-1.5-6.8,1.2-10.7,3.4c-3.9,2-14.1,5.3-18.6,6.5c-4.4,1.2,2.2,6.3-3.9,11.2c-6.1,4.9-20.8,17.5-26.4,23.1c-5.6,5.6-17.4,19.4-22,20.9c-1.9,0.7-4.3,1.2-6.6,1.7c-0.2,5.6-0.5,11.2-1.2,13.8c-1.7,6.5,4.8,5.4,9.4,11.1s7.3-1.4,11.9-7.7c4.6-6.3,5.6-18,9.4-23s20.9-6.5,29.1-9.9s8.5-12.8,13.3-15c3.1-1.4,9.9-0.7,15.7,0c0.2-3.9,0.5-7.8,1-8.5C289,595.9,296.1,591.3,296.6,588.6z"/><path id="JP33" fill="#faff79" stroke="#000" d="M355.5,615.5c2.2-6.6,6-14.3,7.5-20.8c-1,0.3-2.2,0.5-3.2,0.7c-3.7,0.3-13.6,2.6-14.1,0c-0.5-2.6-6.5-9-9.7-8c-3.1,1.2-7.1,4.6-9,4.3c-2-0.3-9-6.3-11.1-4.6s-15.5,18.9-20.6,19.6c-0.2,0-0.2,0-0.3,0c0.9,6.1,2,13.4,2.4,15.5c0.3,2.4,5.4,18.4,8.9,29.3c3.1-0.3,6.1,0.3,8.5-1.4c3.1-2,6,0.2,10.4,2.4c4.4,2.2,7.3,0.5,9.9-3.1c2.4-3.6,4.9-6.3,9.7-7.5c4.8-1.2,4.8-9.7,8.7-9.5c1,0,2.4-0.2,3.9-0.3C355.4,627,353.8,620.6,355.5,615.5z"/><path id="JP34" fill="#f56d64" stroke="#000" d="M294.9,606.6c-5.3,0.3-19.1-2.9-23.7-0.7c-4.8,2.2-5.1,11.6-13.3,15c-8.2,3.4-25.5,5.1-29.1,9.9c-3.1,4.1-4.4,13.1-7.5,19.6c1.7,4.8,3.4,9.7,3.7,11.2c0.5,1.7,5.1,5.1,9.4,8c0.7-2.7,1.5-5.4,2.9-6.6c2-1.9,9.5-6.6,11.2-3.2c1.7,3.6,0.5,10.4,3.4,10.7s8.5,0.5,11.7-2.9c3.2-3.4,3.2-4.8,8-5.6c4.9-0.9,7.5-0.5,10-1.5c2.4-1,4.6-4.4,6.6-4.3s6.1,1.5,9.4,1.4c3.2-0.2,2.4-4.3,6.1-5.8c0.7-0.3,1.5-0.5,2.4-0.7c-3.4-10.9-8.5-26.9-8.9-29.3C297,620.2,295.8,612.9,294.9,606.6z"/><path id="JP35" fill="#b7ddfd" stroke="#000" d="M225,661.9c-0.3-1.5-2-6.5-3.7-11.2c-0.5,1.2-1.2,2.4-1.9,3.2c-4.6,6.3-7.3,13.3-11.9,7.7s-11.1-4.6-9.4-11.1c0.7-2.6,1-8.2,1.2-13.8c-3.1,0.7-6,1.7-7.5,3.6c-2.9,3.4-7.1,10.2-9.7,12.1c-2.4,1.9-5.6,4.9-11.2,4.8c-5.6-0.2-5.6-2.9-9.2-1.9c-3.6,0.9-7.3,3.9-10.6,5.8c-3.2,1.9,2,6.3,2,10.4c0,4.1-3.7,6-3.1,9.4c0.7,3.4,1.5,9.5,3.4,8.7c1.7-0.9,2.2-6.8,6.3-6.6s7.3,4.3,8.5,6c1,1.7,7.7,2.4,10.2,0c2.4-2.4,4.9-4.6,9-3.7c4.1,0.9,11.4-3.7,14.8-3.4c3.4,0.3,8.9,6,12.1,8.7c3.4,2.6,11.2,8,11.9,6.5c0.7-1.5-0.3-5.3,2.4-6.5c2.9-1.2,3.2-12.4,4.3-15.8c0.3-1.4,0.9-2.9,1.2-4.6C230.1,667,225.5,663.5,225,661.9z"/><path id="JP36" fill="#f56d64" stroke="#000" d="M363.4,710.4c3.6-2.4,21.1-12.1,18.4-12.6c-2.6-0.5-7.3-1-5.8-2.4c1.5-1.4,4.4-2.9,3.2-5.1s-5.6-6.5-5.4-9.2c0.2-2.6,2.4-8.9-0.2-11.1c-1.7-1.5-5.1-0.9-8-0.7c-2.4,7.3-9.7,3.1-15.3,5.1c-6.5,2.2-11.9,3.9-21.3,4.3c-9.4,0.3-8.2,5.6-9.4,9.7c-0.9,3.2-1.9,4.3-3.7,5.3c4.9,2.4,13.1,6.5,14.3,6.8c1.7,0.5,4.8-0.5,8-0.9c3.1-0.3,3.7,6.3,4.3,7.7c0.5,1.4,2.2,1.4,5.1,1.4c2.9,0,0.3,4.6,2.6,7.1c1.2,1.4,3.6,2,7,2.4C358.8,715.2,361,712.1,363.4,710.4z"/><path id="JP37" fill="#b7ddfd" stroke="#000" d="M362,668.4c-1.7-2-8.7-1.7-9.5-5.8c-0.9-4.1-2-4.8-5.1-4.9c-3.1-0.2-6.5,1.4-8,1.5c-1.5,0.2-5.4-3.6-7.3-2c-1.9,1.4-9.7,11.4-12.9,11.2c-3.4-0.2-6.5-3.2-6.5-1.5c0,1.5,4.8,5.6,3.7,9.4c-0.7,2.2-1.2,4.8-2.6,6.5l6.3,4.4c0.7-3.7,0.7-8.2,9-8.5c9.4-0.3,14.6-2,21.3-4.3c5.6-1.9,12.9,2.2,15.3-5.1C364,669.4,362.7,669.3,362,668.4z"/><path id="JP38" fill="#ffffff" stroke="#000" d="M310.3,684.6c-3.7,0.3-7.5-0.5-12.4,1.4c-4.9,1.9-10.9,4.6-13.3,2.2c-2.4-2.2-9.7-15-10.2-12.6c-0.3,1.5-0.3,4.3-3.2,5.3c-2.9,1-6.5,5.8-7.3,8.7c-0.9,2.9-3.6,3.7-4.1,8.7c-0.5,4.9-2.4,10-4.8,11.4c-2.2,1.4-10,6.5-11.4,8.2c-1.4,1.5-15.7,9.9-18.9,10.7c-3.4,0.9-9.2,4.1-5.8,3.9c3.4-0.2,6.5-0.5,8-1.4c1.5-0.9,9.5-6.5,11.9-7c2.4-0.5,5.3,0.3,3.2,3.9c-2,3.6-2.4,8.5,0,8.7c2.4,0.2,6.5-1.7,5.3,0c-1.2,1.7,3.2,2.6,1.4,4.9c-1.7,2.2-4.3,1.7-3.7,4.6c0.5,2.7,2.6,9.2,2,10.7c-0.5,1.5-3.2,7.1,0.7,7.5c3.2,0.3,4.8,0,6.8-0.2c1.7-2.9,3.1-5.4,3.1-6.8c-0.3-4.3,1.7-13.1,4.8-15.3c3.1-2.2,8.5-6.5,8.2-10.2s-3.7-6.5-2.2-7.1c1.4-0.5,8.9,0,11.4-4.8c2.6-4.8,3.7-15,12.8-18.9c9-3.9,18.7-4.6,21.8-6.3c3.1-1.7,4.3-2.2,5.4-6.3c0.2-0.3,0.2-0.9,0.3-1.2l-6.3-4.4C312.8,683.7,311.8,684.4,310.3,684.6z"/><path id="JP39" fill="#ffffff" stroke="#000" d="M347.4,708.6c-2.9,0-4.6,0-5.1-1.4c-0.5-1.4-1.2-8-4.3-7.7c-3.1,0.3-6.3,1.4-8,0.9c-1.2-0.3-9.4-4.4-14.3-6.8c-0.5,0.3-1,0.5-1.5,0.9c-3.1,1.7-12.8,2.2-21.8,6.3c-9,3.9-10.2,14.1-12.8,18.9c-2.6,4.8-9.9,4.3-11.4,4.8c-1.4,0.5,2,3.4,2.2,7.1c0.3,3.7-5.1,8-8.2,10.2c-3.1,2.2-5.1,11.1-4.8,15.3c0.2,1.4-1.2,3.9-3.1,6.8c0.5,0,0.9,0,1.4-0.2c3.1-0.2,4.9,1.2,3.2,2.6c-1.7,1.4-4.3,8.3-2.9,8c1.4-0.2,8.9,2,10.2,2c1.4,0,4.4-4.6,6.5-4.1c2,0.5,4.6,7.5,5.3,4.8c0.7-2.9-3.2-6.1-1.7-8.7c1.4-2.4,1-10.4,2.4-11.7c1.4-1.4,5.6-2,6.6-3.9c1-1.7,4.4-6.1,5.6-8.5c1.2-2.2,0.9-10.2,3.6-12.6c2.6-2.4,10-4.1,11.1-5.6c1-1.5,9-6.8,16.8-5.6s6.5,0.2,13.8,5.8c7.1,5.6,12.1,15,12.4,13.3c0.3-1.5,2.9-15.3,5.4-18.4c0.9-1,1.5-2,2.4-3.2c-3.4-0.3-5.6-1-7-2.4C347.7,713.2,350.3,708.6,347.4,708.6z"/><path id="JP40" fill="#f56d64" stroke="#000" d="M149.8,746.2c-1.4-3.9-2.9-15.8,3.7-20.6c6.5-4.8,12.4-2.9,13.3-4.8c0.3-0.9,1-3.6,1.5-6.3c-3.2-1-5.8-2.6-6.8-4.4c-2.9-5.4-6.6-10-5.4-12.4c1.2-2.4,3.4-7.1,2-7.7c-1.2-0.5-4.9,3.9-6.3,3.4c-1.4-0.5-5.3-3.2-7.7-3.1c-2.4,0.2-5.4-0.2-7,1.4c-1.5,1.5-5.3,0.5-8,3.1c-2.9,2.4-2.9,9.4-6.1,11.7c-3.4,2.4-9.7,3.7-6.8,4.4c2.9,0.7,6.5,0.2,5.4,1.2c-1,1-6,5.1-7.1,3.4c-1.2-1.7-1.7-5.1-3.4-4.8c-1.5,0.3-7.5,4.3-7.1,5.8c0.3,1.5,1.2,4.3-0.9,4.8c-0.5,0.2-1,0.5-1.5,1c4.6,0.9,12.8,2.6,16.7,4.8c5.6,3.1,4.6,1.2,9-1.2c4.6-2.2,3.9,2.6,2.9,6c-1.2,3.4-10.7,9.7-12.3,11.9c-0.5,0.9-0.7,2.2-0.7,3.6c1.5,0.2,3.6,0.7,4.1,1.9c0.5,1.4,2.6,5.6,1.5,6.5c-0.9,0.7-0.3,1.9-0.2,3.6c2.6,0.2,4.6,0,5.1-0.7c0.9-1.4,2.2-7.1,5.4-8.2c3.1-1.2,3.9-4.3,7.3-2.9c2.2,1,6,2.6,9.2,4.3C150.1,749.4,150.3,747.7,149.8,746.2z"/><path id="JP41" fill="#ffffff" stroke="#000" d="M129.9,731.7c1.2-3.4,1.7-8.2-2.9-6c-4.6,2.2-3.4,4.3-9,1.2c-3.9-2.2-12.1-3.9-16.7-4.8c-1.4,1.4-2.6,3.6-4.8,3.1c-3.2-0.9-0.3-5.6-2.2-6.3c-1.9-0.7-5.8,1-6.6,2.4c-0.9,1.4-2,3.1-0.9,4.8c1.2,1.7,4.3,11.2,1,9c-1.2-0.9-2-1.7-2.7-2.4c-0.5,1.2-1.2,2.7-1.4,3.4c-0.3,1.2,2.9,7.3,6.8,9.9c3.9,2.6,5.6,8,9.9,11.6c2.4,2,6.5,3.4,9.9,4.1c0.5-0.7,0.9-1.2,0.7-1.7c-1-2.2-6.6-8.9-4.9-10.2c1.7-1.4,4.1-6.1,5.4-6.3c1.4-0.2,3.2,3.6,4.6,3.7c0.3,0,0.7,0,1,0.2c0-1.4,0.2-2.7,0.7-3.6C119.1,741.4,128.8,735.1,129.9,731.7z"/><path id="JP42" fill="#ffffff" stroke="#000" d="M90.5,746c-3.9-2.6-7.1-8.9-6.8-9.9c0.2-0.7,0.9-2.2,1.4-3.4c-1.2-1.4-1.9-2.2-2.7-1.7c-1.4,0.9-4.6,0.9-8.5,0s0,1.9-1.5,5.4c-1.5,3.6-2.4,5.4-1.4,6c1,0.5,4.9,2,6,3.7c1,1.5,6.3,2,6,3.1c-0.3,0.9-2.6,2.7-0.2,3.4c2.4,0.5,5.4-0.7,8.3,1.9s2,1.7,2.6,6.1s4.6,9.2,3.6,9c-1-0.2-5.1-2.6-6.6-2.2c-1.5,0.3-3.1,0.5-3.6-1.4s-0.5-5.3-2-6.5s-3.1-1.5-3.1-3.1c0-1.5,0-3.4-1.9-4.1c-1.9-0.7-3.1-0.7-3.1,1.4c0,2-2.6,6-0.9,8.9c1.7,2.7,1.7,7.8,4.4,8.3c2.6,0.3,7.3,4.9,7.3,6.1c0,1.2-0.9,1.4-1.5,2.6s0.9,1.7-0.5,3.4c-1.4,1.5-4.3,6.3-2,5.3c2-1,7.8-6,8.3-6.8c0.3-0.9,5.3-6.6,7.7-7.5c2.4-0.9,8.3-1.4,8.9-0.5c0.5,0.9,2,4.3-0.7,6c-2.9,1.7-2.4,4.1-1,5.8c1.4,1.7,4.3,2,5.3,0.2c1-1.9,6-2.6,6.8-4.8c0.9-2,2.4-6.1,1-8.9c-1.4-2.6-2.2-6.5-5.4-5.3c-3.2,1.2-6.6,3.6-9.7,2c-2.4-1,3.6-4.3,5.8-6.8c-3.2-0.9-7.5-2.2-9.9-4.1C96.2,753.8,94.5,748.6,90.5,746z"/><path id="JP43" fill="#faff79" stroke="#000" d="M160.5,817.8c4.6,0.5-0.9-7.1,0.9-9c1.7-2-0.3-7.7-2.6-10.7s-2-8.5,1.7-10.2c3.7-1.7,10.6-12.3,11.1-15c0.3-1.7,2.4-3.2,5.1-4.8c-0.5-0.3-1-0.5-1.5-0.9c-3.4-2-3.7-10.6-5.1-14.1c-1.4-3.7-2.9-7.7-9.7-7.3c-6.8,0.3-2,5.1-1.7,7.7c0.3,2.6-2.2,2.9-5.4,0.5c-3.1-2.2-9.7-5.1-13.1-6.5c-3.4-1.4-4.3,1.7-7.3,2.9c-3.1,1.2-4.6,6.8-5.4,8.2c-0.5,0.7-2.6,0.9-5.1,0.7c0,0.5,0.2,0.9,0.2,1.4c0,2.4,2.2,4.8,5.1,6.1c2.9,1.4,5.8,2.6,5.4,5.8c-0.3,3.2,0.7,5.8-3.1,7.5c-3.7,1.7-8.7,5.1-8.7,6.8s1.5,3.4,2.6,2.4c1-0.9,3.2-2,5.1-3.6c1.9-1.4,7.5-2.9,6.6-1.5c-0.9,1.2-3.2,4.9-5.3,6.1c-2,1.2-0.7,9.2-3.6,11.4c-2.9,2.2-6.1,11.9-7.5,12.4c-0.7,0.2-1,1.5-1.4,2.9c0.7,0.9,1.4,1.4,2.6,2.2c3.4,2,9.9-3.1,13.6-1.2c3.6,1.9,4.8,3.6,5.1,5.4c4.4-1.2,8.5-2.2,9.9-2.9C152.8,819,155.9,817.3,160.5,817.8z"/><path id="JP44" fill="#ffffff" stroke="#000" d="M219.9,763.7c-1.4-1.7-7.8-2.2-7.3-4.1c0.5-1.7,6.5-6,5.8-7.1c-0.7-1.2-7-0.5-6.8-1.7s1-2.9-0.2-2.6c-1.2,0.2-3.4,1.7-3.7,0.2c-0.3-1.5,8.5-9,2.9-8.5c-5.6,0.5-10.2-1.2-12.8-1.4s-6,2.9-8.7,0.2c-2.6-2.6-0.7-6,0.5-6.1s7.1,1.4,7-2c-0.2-3.6,6-2,5.8-8c-0.2-6-1.2-12.1-7.7-13.1c-4.6-0.7-9.9,6.8-10.9,7.7c-0.7,0.5-9-0.2-15.3-2.4c-0.5,2.9-1.2,5.4-1.5,6.3c-0.9,2-6.8,0-13.3,4.8s-5.1,16.7-3.7,20.6c0.5,1.5,0.3,3.2-0.2,5.3c1.5,0.9,2.9,1.5,3.9,2.4c3.1,2.2,5.6,2,5.4-0.5c-0.2-2.6-5.1-7.3,1.7-7.7c6.8-0.3,8.2,3.7,9.7,7.3s1.7,12.3,5.1,14.1c3.4,1.9,6.5,3.4,10.2,3.7c3.7,0.3,2.2,4.6,7.7,4.6s7.3-3.1,8.5-4.8c1.2-1.7,6,0,6.3,2c0.2,0.7,0.5,2.4,1.2,4.1c1.2-1.5,1.4-3.2,3.2-3.7c2.4-0.5,5.4-3.4,4.3-4.6C215.1,767.1,221.2,765.4,219.9,763.7z"/><path id="JP45" fill="#ffffff" stroke="#000" d="M207.8,772.6c-0.3-2-5.1-3.7-6.3-2c-1.2,1.7-3.1,4.8-8.5,4.8s-3.9-4.3-7.7-4.6c-3.1-0.2-5.8-1.4-8.7-2.9c-2.7,1.7-4.8,3.1-5.1,4.8c-0.5,2.9-7.3,13.3-11.1,15s-3.9,7.1-1.7,10.2s4.3,8.9,2.6,10.7c-1.7,2,3.7,9.7-0.9,9c-4.6-0.5-7.7,1.2-11.1,2.9c-1.4,0.7-5.4,1.9-9.9,2.9v0.2c0.3,2,3.7,6.5,6,8.5c2.2,2,4.8,3.4,4.6,5.6c-0.3,2.2-2,5.1,0.9,6.3s3.7,2,8,7.7s11.6,2.2,10.6,7.1c-0.5,2.6-1.5,5.8-2.2,8.5c1.7,0.9,2.9,2,2.9,2.9c0,1.9,5.4,3.6,7.1,2c1.7-1.4-1-9,2.9-12.9c3.9-4.1,4.6-11.4,4.4-15.8c-0.2-4.4,0.5-10.6,2.6-17.4c2-6.8,7.1-20.9,9-23.8c1.7-3.1,0-5.1,1.4-6.8s1.5-6.3,4.1-8.3c2.4-1.9,2.2-7.7,5.6-9.2c0.9-0.3,1.5-0.9,1.9-1.4C208.3,774.9,207.8,773.2,207.8,772.6z"/><path id="JP46" fill="#f56d64" stroke="#000" d="M158.8,851.9c-4.3-5.6-5.1-6.5-8-7.7s-1.2-3.9-0.9-6.3c0.3-2.2-2.2-3.7-4.6-5.6c-2.2-2-5.6-6.5-6-8.5c-0.3-2-1.4-3.7-5.1-5.6c-3.7-2-10.2,3.1-13.6,1.2c-1.2-0.7-2-1.4-2.6-2.2c-0.5,1.7-1.2,3.4-2.7,3.4c-2.6,0-6.8-1.2-7.3-2.4s0-6.6-2-5.8c-2,0.9-4.8,1.5-4.1,3.6c0.7,1.9,0.9,4.9,3.4,6.1c2.4,1.2,5.1,1.4,3.1,4.1c-2,2.6-0.5,3.1,0.2,4.8c0.7,1.7,1,6.1-1,9.2c-2,3.1-1.4,6,2.4,9c3.9,3.1,8.3,9.2,5.8,14.6c-2.4,5.4-5.1,8.3-6.5,7.3c-1.4-0.9-3.7-2.9-4.6-1.9c-0.9,0.9-0.5,3.1,0.2,3.7c0.7,0.7,4.6,5.4,4.4,7.1s2.6,3.6,3.2,2.4c0.5-1,2-1,4.9-0.3c2.9,0.7,5.4-1.7,7.7,0.7c2.2,2.4,0.5,4.9,2,5.1c1.5,0.2,6.8,0.7,7.7-1.4c0.9-2,1.9-4.4,0.9-5.1c-1-0.7-5.8-1.9-6.6-5.1c-0.9-3.2-1.4-9.4-0.7-12.3c0.7-3.1,3.6-7.7,4.3-9.9c0.7-2,0.5-5.4,3.1-5.6c2.4-0.2,8.5,1.5,9.2,3.2c0.7,1.5-0.9,8.5-3.6,8.3c-2.6-0.2-2.2-4.9-4.9-4.4c-2.6,0.5-3.6,2.2-3.6,3.1c0,0.7-1.2,2.2,1.5,2.4c2.9,0.2,3.6,0.7,3.6,1.2c0,0.5,0.2,4.4,1.7,5.8c1.5,1.4,4.3,7.3,3.9,11.2c-0.3,3.9-1.7,9.9-4.1,11.4c-2.2,1.5-2.2,9.4-1,8.3c1.2-1,5.4-4.4,9.2-5.6s9.7-6.8,11.4-8.3c1.7-1.4,5.8-4.4,4.3-6.6c-1.5-2.2-7.5-6.5-3.4-10c2.4-1.9,5.1-1.7,7.1-0.7c0.7-2.7,1.5-6.1,2.2-8.5C170.4,854.1,163,857.5,158.8,851.9z"/><path id="JP47" fill="#f56d64" stroke="#000" d="M23,891c-1.5,0.9-6.8,8-9.5,10.4c-2.7,2.6-6.1,7.1-8.2,4.4c-1.9-2.7-5.3-7.1-7.1-5.3c-1.9,1.9-3.1,3.9,2.2,7.5c5.3,3.7,1.5,5.1-2.9,6c-4.4,1-11.2,3.2-11.6,6.1c-0.3,2.9-0.5,8-1.4,9.5c-0.9,1.5-6,5.6-5.4,7.1c0.5,1.5,1.2,7.5,2.7,7.3c1.5-0.2,7.5-2.9,7-6.1c-0.5-3.2-0.5-6.1,3.9-8.5c4.4-2.4,0.2-8.2,2.7-9.4s2.4-0.3,4.6-1.7c2.4-1.4,7.7-4.6,10.9-6.5c3.1-1.7,6.1-5.1,8.5-5.3c2.4-0.2,7.5-3.7,7.5-6.8C26.9,897.1,25.7,889.3,23,891z"/><polyline class="noEdit" fill="none" stroke="#000" points="-47.2,860 51.6,860 51.6,957.1 "/></svg>
